<svg height="12" viewBox="0 0 12 12" width="12" xmlns="http://www.w3.org/2000/svg"><g fill="none" fill-rule="evenodd" transform="translate(-2 -2)"><path d="m0 0h16v16h-16z"/><path d="m13.7337884 2.27531286c-.3549488-.35494881-.9283276-.35494881-1.2832765 0l-4.4505119 4.44141069-4.45051195-4.45051195c-.3549488-.3549488-.92832764-.3549488-1.28327645 0-.3549488.35494881-.3549488.92832765 0 1.28327645l4.45051195 4.45051195-4.45051195 4.4505119c-.3549488.3549489-.3549488.9283277 0 1.2832765.35494881.3549488.92832765.3549488 1.28327645 0l4.45051195-4.45051195 4.4505119 4.45051195c.3549489.3549488.9283277.3549488 1.2832765 0s.3549488-.9283276 0-1.2832765l-4.45051195-4.4505119 4.45051195-4.45051195c.3458475-.34584755.3458475-.92832764 0-1.27417519z" fill="#ffa15e"/></g></svg>